<?xml version="1.0" standalone="no"?>
<!DOCTYPE svg PUBLIC "-//W3C//DTD SVG 20010904//EN"
 "http://www.w3.org/TR/2001/REC-SVG-20010904/DTD/svg10.dtd">
<svg version="1.0" xmlns="http://www.w3.org/2000/svg"
 width="362.000000pt" height="362.000000pt" viewBox="0 0 362.000000 362.000000"
 preserveAspectRatio="xMidYMid meet">
<metadata>
Created by potrace 1.14, written by Peter Selinger 2001-2017
</metadata>
<g transform="translate(0.000000,362.000000) scale(0.100000,-0.100000)"
fill="#000000" stroke="none">
<path d="M1695 3604 c-74 -27 -131 -74 -172 -143 -55 -94 -55 -95 -84 -148
-15 -26 -36 -64 -48 -83 -11 -19 -30 -53 -42 -75 -18 -34 -53 -94 -106 -182
l-13 -22 -67 41 c-193 117 -282 167 -573 319 -56 29 -105 52 -100 46 3 -2 50
-40 105 -82 54 -43 105 -83 111 -89 6 -6 36 -31 65 -56 385 -326 760 -775
1014 -1215 160 -277 265 -509 375 -824 l57 -165 114 2 c63 1 156 1 207 2 l94
0 -7 47 c-3 27 -8 55 -10 63 -2 8 -6 27 -9 42 -34 196 -142 481 -276 727 -22
41 -39 76 -37 77 4 4 115 -143 152 -201 61 -94 152 -256 199 -356 70 -150 83
-181 122 -293 33 -95 39 -105 65 -111 49 -11 131 -7 206 10 102 23 169 72 209
152 34 68 33 65 35 173 1 79 -11 114 -78 222 -13 21 -36 62 -52 90 -16 29 -74
131 -130 226 -55 95 -101 175 -101 176 0 2 -25 45 -55 95 -30 51 -55 94 -55
96 0 2 -20 37 -44 77 -41 68 -307 527 -364 628 -14 25 -77 135 -140 245 -249
432 -241 421 -337 472 -60 32 -166 40 -230 17z"/>
<path d="M891 2265 c-55 -98 -101 -180 -101 -184 0 -3 31 -38 69 -78 114 -118
217 -263 286 -403 l27 -55 -33 40 c-44 55 -386 395 -396 395 -5 0 -78 -123
-163 -272 -85 -150 -167 -290 -182 -311 -44 -62 -62 -129 -55 -209 9 -110 73
-198 177 -247 l55 -25 560 -1 c550 0 560 0 571 -20 6 -11 22 -40 36 -65 71
-127 110 -203 204 -390 56 -113 123 -252 149 -310 54 -122 66 -139 54 -79 -4
24 -18 94 -29 154 -12 61 -23 119 -26 130 -2 11 -7 34 -10 50 -26 147 -125
504 -195 705 -72 206 -234 511 -421 795 -115 175 -286 378 -446 528 l-30 28
-101 -176z"/>
</g>
</svg>
